<svg xmlns="http://www.w3.org/2000/svg" xmlns:xlink="http://www.w3.org/1999/xlink" width="500" zoomAndPan="magnify" viewBox="0 0 375 374.999991" height="500" preserveAspectRatio="xMidYMid meet" version="1.0"><path fill="#1d1d1b" d="M 171.160156 248.378906 L 171.160156 248.269531 L 174.015625 248.269531 C 174.496094 248.269531 174.914062 248.347656 175.269531 248.488281 C 175.628906 248.644531 175.9375 248.828125 176.1875 249.09375 C 176.433594 249.339844 176.605469 249.636719 176.726562 249.945312 C 176.851562 250.273438 176.914062 250.597656 176.914062 250.953125 C 176.914062 251.308594 176.851562 251.621094 176.742188 251.945312 C 176.636719 252.273438 176.449219 252.550781 176.214844 252.800781 C 175.984375 253.046875 175.65625 253.25 175.269531 253.386719 C 174.882812 253.542969 174.433594 253.605469 173.921875 253.605469 C 173.765625 253.605469 173.441406 253.574219 172.988281 253.527344 L 172.988281 256.921875 C 172.988281 257.621094 173.300781 257.976562 173.9375 258.007812 L 173.9375 258.117188 L 171.160156 258.117188 L 171.160156 258.007812 C 171.4375 258.007812 171.65625 257.914062 171.828125 257.746094 C 171.996094 257.574219 172.089844 257.3125 172.089844 256.921875 L 172.089844 249.480469 C 172.089844 249.25 172.058594 249.0625 171.996094 248.90625 C 171.933594 248.753906 171.859375 248.644531 171.78125 248.582031 C 171.703125 248.519531 171.59375 248.472656 171.5 248.441406 C 171.390625 248.410156 171.328125 248.394531 171.285156 248.378906 Z M 172.988281 248.613281 L 172.988281 253.25 C 173.300781 253.3125 173.59375 253.339844 173.890625 253.339844 C 174.449219 253.339844 174.929688 253.171875 175.316406 252.84375 C 175.703125 252.519531 175.90625 251.914062 175.90625 251.03125 C 175.90625 250.300781 175.734375 249.699219 175.394531 249.234375 C 175.054688 248.765625 174.527344 248.535156 173.828125 248.535156 C 173.546875 248.535156 173.285156 248.566406 172.988281 248.628906 " fill-opacity="1" fill-rule="nonzero"/><path fill="#1d1d1b" d="M 181.257812 248.148438 L 183.863281 256.566406 C 184.003906 257 184.128906 257.3125 184.253906 257.511719 C 184.375 257.714844 184.484375 257.839844 184.609375 257.882812 C 184.71875 257.929688 184.855469 257.976562 185.042969 257.992188 L 185.042969 258.101562 L 182.203125 258.101562 L 182.203125 257.992188 C 182.5 257.992188 182.714844 257.960938 182.871094 257.898438 C 183.027344 257.839844 183.105469 257.667969 183.105469 257.386719 C 183.105469 257.234375 183.074219 257.03125 182.996094 256.785156 C 182.980469 256.753906 182.964844 256.722656 182.964844 256.707031 L 182.1875 254.101562 L 179.164062 254.101562 L 178.464844 256.519531 C 178.371094 256.847656 178.328125 257.109375 178.328125 257.3125 C 178.328125 257.589844 178.386719 257.777344 178.511719 257.855469 C 178.636719 257.945312 178.808594 257.992188 179.039062 257.992188 L 179.039062 258.101562 L 176.992188 258.101562 L 176.992188 257.992188 C 177.285156 257.960938 177.519531 257.839844 177.691406 257.621094 C 177.859375 257.402344 178.015625 257.0625 178.15625 256.613281 L 180.621094 248.148438 Z M 179.273438 253.730469 L 182.050781 253.730469 L 180.621094 249.0625 L 180.589844 249.0625 L 179.257812 253.730469 Z M 179.273438 253.730469 " fill-opacity="1" fill-rule="nonzero"/><path fill="#1d1d1b" d="M 186.144531 248.394531 L 186.019531 248.394531 L 186.019531 248.257812 L 189.046875 248.257812 C 189.527344 248.257812 189.945312 248.332031 190.269531 248.503906 C 190.613281 248.675781 190.875 248.890625 191.0625 249.15625 C 191.25 249.417969 191.386719 249.683594 191.464844 249.976562 C 191.542969 250.273438 191.589844 250.550781 191.589844 250.828125 C 191.589844 251.1875 191.527344 251.527344 191.386719 251.851562 C 191.25 252.179688 191.046875 252.457031 190.785156 252.691406 C 190.503906 252.921875 190.164062 253.09375 189.757812 253.171875 L 189.757812 253.203125 C 190.285156 253.480469 190.769531 254.054688 191.203125 254.890625 L 191.992188 256.394531 C 192.351562 257.0625 192.628906 257.496094 192.847656 257.667969 C 193.0625 257.855469 193.265625 257.945312 193.484375 257.960938 L 193.484375 258.070312 L 191.898438 258.070312 C 191.839844 257.976562 191.777344 257.882812 191.714844 257.792969 C 191.652344 257.699219 191.589844 257.605469 191.527344 257.496094 C 191.480469 257.433594 191.433594 257.328125 191.355469 257.1875 C 191.28125 257.046875 191.234375 256.96875 191.21875 256.953125 L 190.179688 255.015625 C 189.976562 254.613281 189.757812 254.304688 189.542969 254.054688 C 189.324219 253.808594 189.125 253.636719 188.921875 253.527344 C 188.734375 253.417969 188.566406 253.355469 188.410156 253.324219 C 188.253906 253.296875 188.085938 253.28125 187.882812 253.28125 L 187.882812 256.875 C 187.882812 257.574219 188.191406 257.929688 188.828125 257.960938 L 188.828125 258.070312 L 186.050781 258.070312 L 186.050781 257.960938 C 186.222656 257.960938 186.378906 257.914062 186.515625 257.855469 C 186.65625 257.792969 186.765625 257.683594 186.859375 257.511719 C 186.953125 257.359375 187 257.140625 187 256.875 L 187 249.433594 C 187 249.046875 186.921875 248.769531 186.75 248.613281 C 186.578125 248.457031 186.394531 248.378906 186.191406 248.378906 M 187.851562 253.046875 L 188.347656 253.046875 C 188.875 253.046875 189.292969 252.96875 189.636719 252.800781 C 189.960938 252.628906 190.210938 252.394531 190.363281 252.070312 C 190.519531 251.761719 190.582031 251.371094 190.582031 250.921875 C 190.582031 250.550781 190.519531 250.179688 190.378906 249.804688 C 190.242188 249.449219 190.023438 249.140625 189.699219 248.890625 C 189.371094 248.644531 188.9375 248.519531 188.394531 248.519531 C 188.175781 248.519531 187.992188 248.535156 187.851562 248.582031 Z M 187.851562 253.046875 " fill-opacity="1" fill-rule="nonzero"/><path fill="#1d1d1b" d="M 197.191406 248.257812 L 197.191406 248.363281 C 196.925781 248.363281 196.710938 248.441406 196.523438 248.613281 C 196.335938 248.78125 196.242188 249.046875 196.242188 249.433594 L 196.242188 256.890625 C 196.242188 257.265625 196.335938 257.542969 196.539062 257.714844 C 196.726562 257.882812 196.941406 257.976562 197.191406 257.976562 L 197.191406 258.085938 L 194.429688 258.085938 L 194.429688 257.976562 C 194.675781 257.976562 194.894531 257.898438 195.082031 257.730469 C 195.265625 257.558594 195.359375 257.28125 195.359375 256.890625 L 195.359375 249.433594 C 195.359375 249.03125 195.265625 248.738281 195.082031 248.597656 C 194.894531 248.441406 194.675781 248.363281 194.429688 248.363281 L 194.429688 248.257812 Z M 197.191406 248.257812 " fill-opacity="1" fill-rule="nonzero"/><path fill="#1d1d1b" d="M 202.976562 250.148438 L 202.882812 250.148438 C 202.820312 249.667969 202.652344 249.25 202.324219 248.890625 C 202.015625 248.535156 201.597656 248.347656 201.082031 248.347656 C 200.742188 248.347656 200.449219 248.441406 200.183594 248.613281 C 199.921875 248.78125 199.71875 249.03125 199.578125 249.339844 C 199.441406 249.652344 199.363281 250.007812 199.363281 250.394531 C 199.363281 250.707031 199.410156 250.96875 199.484375 251.21875 C 199.5625 251.449219 199.703125 251.667969 199.859375 251.851562 C 200.027344 252.039062 200.214844 252.210938 200.449219 252.363281 C 200.664062 252.519531 200.976562 252.722656 201.363281 252.96875 C 202 253.371094 202.496094 253.761719 202.851562 254.148438 C 203.210938 254.535156 203.378906 255.078125 203.378906 255.761719 C 203.378906 256.179688 203.285156 256.582031 203.101562 256.96875 C 202.914062 257.355469 202.621094 257.683594 202.230469 257.929688 C 201.84375 258.179688 201.363281 258.304688 200.789062 258.304688 C 200.433594 258.304688 200.105469 258.257812 199.84375 258.179688 C 199.5625 258.085938 199.285156 257.976562 199.003906 257.824219 C 198.882812 257.777344 198.804688 257.761719 198.757812 257.761719 C 198.679688 257.761719 198.617188 257.792969 198.601562 257.855469 C 198.570312 257.914062 198.539062 258.070312 198.492188 258.289062 L 198.398438 258.289062 L 198.398438 255.824219 L 198.492188 255.824219 C 198.632812 256.535156 198.910156 257.09375 199.316406 257.449219 C 199.71875 257.824219 200.230469 258.007812 200.820312 258.007812 C 201.253906 258.007812 201.609375 257.914062 201.875 257.730469 C 202.140625 257.542969 202.324219 257.3125 202.433594 257.046875 C 202.542969 256.785156 202.589844 256.519531 202.589844 256.242188 C 202.589844 255.683594 202.433594 255.234375 202.136719 254.890625 C 201.84375 254.535156 201.394531 254.179688 200.789062 253.820312 C 200.371094 253.558594 200.058594 253.355469 199.859375 253.21875 C 199.65625 253.078125 199.453125 252.890625 199.238281 252.660156 C 199.035156 252.425781 198.867188 252.164062 198.742188 251.851562 C 198.617188 251.542969 198.554688 251.1875 198.554688 250.785156 C 198.554688 250.316406 198.664062 249.882812 198.882812 249.449219 C 199.097656 249.03125 199.410156 248.691406 199.796875 248.425781 C 200.199219 248.179688 200.648438 248.039062 201.144531 248.039062 C 201.535156 248.039062 201.921875 248.117188 202.324219 248.253906 C 202.386719 248.285156 202.480469 248.300781 202.574219 248.300781 C 202.695312 248.300781 202.789062 248.210938 202.835938 248.007812 L 202.929688 248.007812 L 202.929688 250.117188 Z M 202.976562 250.148438 " fill-opacity="1" fill-rule="nonzero"/><path fill="#1d1d1b" d="M 15.625 190.3125 L 15.625 189.894531 L 27.929688 189.894531 C 29.652344 189.894531 31.234375 190.066406 32.691406 190.390625 C 34.148438 190.730469 35.453125 191.164062 36.601562 191.722656 C 37.75 192.28125 38.742188 192.886719 39.578125 193.554688 C 40.417969 194.21875 41.128906 194.886719 41.703125 195.570312 C 42.710938 196.714844 43.582031 197.972656 44.277344 199.367188 C 44.992188 200.761719 45.519531 202.238281 45.878906 203.785156 C 46.234375 205.335938 46.40625 206.933594 46.40625 208.578125 C 46.40625 210.222656 46.234375 211.789062 45.878906 213.277344 C 45.535156 214.765625 45.023438 216.128906 44.386719 217.402344 C 43.734375 218.671875 42.960938 219.804688 42.0625 220.84375 C 41.160156 221.867188 40.105469 222.796875 38.910156 223.632812 C 37.886719 224.316406 36.707031 224.875 35.375 225.292969 C 34.039062 225.710938 32.242188 225.929688 29.976562 225.929688 L 15.640625 225.929688 L 15.640625 225.539062 L 16.078125 225.539062 C 17.070312 225.539062 17.8125 225.121094 18.3125 224.269531 C 18.808594 223.417969 19.054688 222.515625 19.054688 221.570312 L 19.054688 194.359375 C 19.054688 193.445312 18.914062 192.683594 18.652344 192.066406 C 18.386719 191.445312 18.03125 190.996094 17.582031 190.714844 C 17.132812 190.4375 16.636719 190.296875 16.09375 190.296875 L 15.65625 190.296875 Z M 22.328125 191.601562 L 22.328125 220.160156 C 22.328125 221.554688 22.53125 222.59375 22.917969 223.261719 C 23.320312 223.929688 23.925781 224.347656 24.78125 224.546875 C 25.617188 224.75 26.84375 224.84375 28.472656 224.84375 C 30.78125 224.84375 32.738281 224.578125 34.335938 224.066406 C 35.933594 223.554688 37.46875 222.410156 38.957031 220.625 C 40.058594 219.308594 40.945312 217.695312 41.609375 215.789062 C 42.277344 213.878906 42.605469 211.570312 42.605469 208.855469 C 42.605469 206.71875 42.339844 204.609375 41.796875 202.5 C 41.269531 200.40625 40.449219 198.546875 39.347656 196.902344 C 38.121094 195.058594 36.539062 193.617188 34.597656 192.578125 C 32.675781 191.539062 30.347656 191.011719 27.617188 191.011719 C 26.222656 191.011719 24.453125 191.210938 22.328125 191.601562 " fill-opacity="1" fill-rule="nonzero"/><path fill="#1d1d1b" d="M 62.289062 189.445312 L 71.859375 220.332031 C 72.375 221.929688 72.839844 223.089844 73.289062 223.804688 C 73.738281 224.515625 74.171875 224.984375 74.574219 225.167969 C 74.996094 225.355469 75.507812 225.480469 76.144531 225.539062 L 76.144531 225.929688 L 65.703125 225.929688 L 65.703125 225.539062 C 66.773438 225.539062 67.59375 225.433594 68.167969 225.199219 C 68.742188 224.96875 69.039062 224.347656 69.039062 223.339844 C 69.039062 222.78125 68.898438 222.035156 68.617188 221.105469 C 68.558594 220.980469 68.527344 220.875 68.527344 220.8125 L 65.6875 211.246094 L 54.625 211.246094 L 52.082031 220.097656 C 51.742188 221.308594 51.554688 222.269531 51.554688 223.011719 C 51.554688 224.019531 51.773438 224.703125 52.222656 225.027344 C 52.671875 225.371094 53.308594 225.523438 54.128906 225.523438 L 54.128906 225.914062 L 46.621094 225.914062 L 46.621094 225.523438 C 47.691406 225.417969 48.546875 224.953125 49.195312 224.144531 C 49.847656 223.339844 50.40625 222.113281 50.871094 220.453125 L 59.902344 189.429688 L 62.242188 189.429688 Z M 55.015625 209.957031 L 65.191406 209.957031 L 59.976562 192.855469 L 59.886719 192.855469 L 55 209.957031 Z M 55.015625 209.957031 " fill-opacity="1" fill-rule="nonzero"/><path fill="#1d1d1b" d="M 116.863281 189.894531 L 116.863281 190.3125 C 116.210938 190.46875 115.636719 190.730469 115.125 191.132812 C 114.613281 191.539062 114.117188 192.1875 113.636719 193.121094 C 113.140625 194.035156 112.628906 195.367188 112.101562 197.121094 L 103.136719 226.90625 L 102.808594 226.90625 L 94.648438 197.121094 L 94.542969 197.121094 L 85.667969 226.90625 L 85.34375 226.90625 L 76.25 194.066406 C 75.925781 192.902344 75.523438 192.066406 75.058594 191.539062 C 74.589844 191.011719 74.171875 190.699219 73.785156 190.578125 C 73.398438 190.453125 72.929688 190.375 72.359375 190.3125 L 72.359375 189.894531 L 82.269531 189.894531 L 82.269531 190.3125 C 81.402344 190.375 80.75 190.667969 80.300781 191.195312 C 79.867188 191.722656 79.632812 192.359375 79.632812 193.136719 C 79.632812 193.722656 79.757812 194.453125 80.003906 195.335938 L 86.753906 219.695312 L 86.847656 219.695312 L 94.089844 195.335938 L 93.78125 194.234375 C 93.484375 193.179688 93.050781 192.265625 92.476562 191.539062 C 91.902344 190.792969 90.988281 190.390625 89.761719 190.328125 L 89.761719 189.910156 L 99.984375 189.910156 L 99.984375 190.328125 C 98.824219 190.34375 98.078125 190.683594 97.738281 191.335938 C 97.394531 191.988281 97.226562 192.59375 97.226562 193.148438 C 97.226562 193.847656 97.332031 194.59375 97.550781 195.351562 L 104.207031 219.710938 L 104.296875 219.710938 L 111.09375 197.152344 C 111.296875 196.546875 111.480469 195.832031 111.652344 195.027344 C 111.824219 194.203125 111.898438 193.523438 111.898438 192.949219 C 111.898438 191.832031 111.683594 191.148438 111.265625 190.871094 C 110.828125 190.59375 110.148438 190.421875 109.183594 190.359375 L 109.183594 189.941406 L 116.847656 189.941406 Z M 116.863281 189.894531 " fill-opacity="1" fill-rule="nonzero"/><path fill="#1d1d1b" d="M 151.984375 189.894531 L 151.984375 190.3125 C 151.179688 190.421875 150.542969 190.609375 150.0625 190.839844 C 149.597656 191.074219 149.222656 191.539062 148.960938 192.234375 C 148.695312 192.933594 148.574219 193.925781 148.574219 195.226562 L 148.574219 226.84375 L 148.355469 226.84375 L 123.8125 195.957031 L 123.8125 218.128906 C 123.8125 219.972656 123.875 221.339844 124.015625 222.238281 C 124.140625 223.136719 124.339844 223.773438 124.574219 224.175781 C 125.101562 225.027344 126.046875 225.480469 127.367188 225.539062 L 127.367188 225.929688 L 119.363281 225.929688 L 119.363281 225.539062 C 120.261719 225.496094 120.960938 225.277344 121.457031 224.890625 C 121.953125 224.5 122.308594 223.804688 122.527344 222.78125 C 122.726562 221.757812 122.835938 220.222656 122.835938 218.160156 L 122.835938 194.640625 L 121.78125 193.289062 C 120.835938 192.082031 120.089844 191.320312 119.53125 190.996094 C 118.972656 190.667969 118.261719 190.4375 117.421875 190.265625 L 117.421875 189.847656 L 123.425781 189.847656 L 147.59375 220.394531 L 147.59375 197.121094 C 147.59375 195.367188 147.535156 194.066406 147.410156 193.195312 C 147.285156 192.328125 146.960938 191.644531 146.433594 191.117188 C 145.90625 190.59375 145.082031 190.3125 143.949219 190.265625 L 143.949219 189.847656 L 151.96875 189.847656 Z M 151.984375 189.894531 " fill-opacity="1" fill-rule="nonzero"/><path fill="#1d1d1b" d="M 203.722656 189.894531 L 203.722656 190.3125 C 203.117188 190.390625 202.679688 190.46875 202.417969 190.515625 C 202.152344 190.578125 201.875 190.746094 201.550781 191.011719 C 201.054688 191.429688 200.742188 191.832031 200.632812 192.203125 C 200.523438 192.578125 200.433594 193.226562 200.402344 194.15625 C 200.355469 194.296875 200.355469 194.453125 200.402344 194.59375 L 201.503906 221.371094 C 201.535156 222.5 201.765625 223.464844 202.214844 224.285156 C 202.667969 225.105469 203.644531 225.507812 205.148438 225.539062 L 205.148438 225.929688 L 194.800781 225.929688 L 194.800781 225.539062 C 196.167969 225.386719 197.082031 224.9375 197.5625 224.207031 C 198.042969 223.480469 198.246094 222.347656 198.167969 220.8125 L 197.066406 193.105469 L 196.972656 193.105469 L 185.695312 225.929688 L 175.023438 194.3125 L 174.929688 194.3125 L 173.78125 219.867188 C 173.71875 221.277344 173.796875 222.363281 174.015625 223.136719 C 174.230469 223.914062 174.558594 224.472656 175.023438 224.796875 C 175.488281 225.136719 176.171875 225.386719 177.085938 225.539062 L 177.085938 225.929688 L 169.035156 225.929688 L 169.035156 225.539062 C 170.058594 225.523438 170.847656 225.246094 171.375 224.703125 C 171.902344 224.160156 172.261719 223.492188 172.429688 222.6875 C 172.601562 221.882812 172.726562 220.78125 172.804688 219.371094 L 174.074219 192.933594 C 174.074219 192.839844 173.984375 192.652344 173.8125 192.40625 C 173.640625 192.15625 173.425781 191.894531 173.175781 191.644531 C 172.929688 191.398438 172.679688 191.195312 172.445312 191.042969 C 171.949219 190.699219 171.53125 190.5 171.160156 190.4375 C 170.800781 190.375 170.289062 190.328125 169.640625 190.28125 L 169.640625 189.863281 L 177.054688 189.863281 L 186.953125 219.355469 L 196.988281 189.863281 L 203.691406 189.863281 Z M 203.722656 189.894531 " fill-opacity="1" fill-rule="nonzero"/><path fill="#1d1d1b" d="M 222.335938 189.445312 L 231.90625 220.332031 C 232.417969 221.929688 232.886719 223.089844 233.335938 223.804688 C 233.785156 224.515625 234.21875 224.984375 234.621094 225.167969 C 235.042969 225.355469 235.554688 225.480469 236.191406 225.539062 L 236.191406 225.929688 L 225.75 225.929688 L 225.75 225.539062 C 226.820312 225.539062 227.640625 225.433594 228.214844 225.199219 C 228.789062 224.96875 229.085938 224.347656 229.085938 223.339844 C 229.085938 222.78125 228.945312 222.035156 228.664062 221.105469 C 228.605469 220.980469 228.574219 220.875 228.574219 220.8125 L 225.734375 211.246094 L 214.671875 211.246094 L 212.128906 220.097656 C 211.789062 221.308594 211.601562 222.269531 211.601562 223.011719 C 211.601562 224.019531 211.820312 224.703125 212.269531 225.027344 C 212.71875 225.371094 213.355469 225.523438 214.175781 225.523438 L 214.175781 225.914062 L 206.667969 225.914062 L 206.667969 225.523438 C 207.738281 225.417969 208.59375 224.953125 209.242188 224.144531 C 209.894531 223.339844 210.453125 222.113281 210.917969 220.453125 L 219.949219 189.429688 L 222.289062 189.429688 Z M 215.0625 209.957031 L 225.238281 209.957031 L 220.023438 192.855469 L 219.933594 192.855469 L 215.046875 209.957031 Z M 215.0625 209.957031 " fill-opacity="1" fill-rule="nonzero"/><path fill="#1d1d1b" d="M 238.6875 190.40625 L 238.253906 190.40625 L 238.253906 189.894531 L 249.3125 189.894531 C 251.097656 189.894531 252.601562 190.203125 253.84375 190.824219 C 255.085938 191.445312 256.046875 192.234375 256.730469 193.179688 C 257.410156 194.144531 257.90625 195.152344 258.203125 196.203125 C 258.496094 197.257812 258.652344 198.3125 258.652344 199.335938 C 258.652344 200.640625 258.402344 201.894531 257.921875 203.089844 C 257.441406 204.28125 256.699219 205.320312 255.6875 206.191406 C 254.679688 207.058594 253.425781 207.648438 251.917969 207.957031 L 251.917969 208.050781 C 253.828125 209.089844 255.597656 211.167969 257.210938 214.269531 L 260.09375 219.773438 C 261.398438 222.238281 262.4375 223.789062 263.230469 224.441406 C 264.019531 225.089844 264.796875 225.464844 265.554688 225.539062 L 265.554688 225.929688 L 259.738281 225.929688 C 259.488281 225.570312 259.257812 225.230469 259.039062 224.890625 C 258.824219 224.546875 258.589844 224.207031 258.34375 223.820312 C 258.203125 223.570312 257.984375 223.199219 257.707031 222.703125 C 257.425781 222.207031 257.257812 221.929688 257.195312 221.867188 L 253.378906 214.75 C 252.617188 213.292969 251.828125 212.113281 251.019531 211.214844 C 250.214844 210.316406 249.46875 209.664062 248.769531 209.277344 C 248.074219 208.886719 247.453125 208.640625 246.894531 208.546875 C 246.335938 208.453125 245.683594 208.40625 244.921875 208.40625 L 244.921875 221.601562 C 244.921875 224.160156 246.085938 225.480469 248.398438 225.570312 L 248.398438 225.960938 L 238.222656 225.960938 L 238.222656 225.570312 C 238.859375 225.539062 239.417969 225.402344 239.914062 225.167969 C 240.410156 224.9375 240.8125 224.515625 241.136719 223.945312 C 241.464844 223.371094 241.617188 222.578125 241.617188 221.601562 L 241.617188 194.34375 C 241.617188 192.902344 241.308594 191.894531 240.6875 191.304688 C 240.066406 190.714844 239.386719 190.421875 238.65625 190.421875 M 244.953125 207.429688 L 246.769531 207.429688 C 248.675781 207.429688 250.246094 207.121094 251.46875 206.5 C 252.695312 205.878906 253.578125 204.996094 254.121094 203.847656 C 254.664062 202.703125 254.945312 201.289062 254.945312 199.632812 C 254.945312 198.25 254.695312 196.886719 254.199219 195.554688 C 253.703125 194.21875 252.867188 193.105469 251.6875 192.203125 C 250.507812 191.304688 248.925781 190.839844 246.925781 190.839844 C 246.117188 190.839844 245.449219 190.917969 244.921875 191.058594 L 244.921875 207.429688 Z M 244.953125 207.429688 " fill-opacity="1" fill-rule="nonzero"/><path fill="#1d1d1b" d="M 291.941406 196.917969 L 291.601562 196.917969 C 291.445312 194.5625 290.839844 193.042969 289.785156 192.359375 C 288.730469 191.660156 287.429688 191.320312 285.878906 191.320312 L 279.515625 191.320312 L 279.515625 221.585938 C 279.515625 224.144531 280.679688 225.464844 282.992188 225.554688 L 282.992188 225.945312 L 272.816406 225.945312 L 272.816406 225.554688 C 273.777344 225.523438 274.570312 225.214844 275.234375 224.609375 C 275.902344 224.003906 276.226562 223.011719 276.226562 221.585938 L 276.226562 191.320312 L 269.867188 191.320312 C 268.316406 191.320312 267.027344 191.660156 265.972656 192.359375 C 264.917969 193.058594 264.3125 194.578125 264.144531 196.917969 L 263.800781 196.917969 L 263.800781 188.109375 L 264.144531 188.109375 C 264.375 188.515625 264.578125 188.824219 264.75 189.011719 C 264.917969 189.210938 265.152344 189.367188 265.414062 189.507812 C 265.695312 189.644531 266.003906 189.738281 266.378906 189.800781 C 266.75 189.863281 267.183594 189.894531 267.695312 189.894531 L 288.390625 189.894531 C 289.769531 189.894531 290.839844 189.304688 291.601562 188.109375 L 291.941406 188.109375 Z M 291.941406 196.917969 " fill-opacity="1" fill-rule="nonzero"/><path fill="#1d1d1b" d="M 304.476562 189.894531 L 304.476562 190.3125 C 303.515625 190.3125 302.707031 190.621094 302.042969 191.210938 C 301.375 191.816406 301.050781 192.824219 301.050781 194.21875 L 301.050781 221.585938 C 301.050781 222.96875 301.40625 223.976562 302.121094 224.609375 C 302.832031 225.246094 303.625 225.554688 304.476562 225.554688 L 304.476562 225.945312 L 294.347656 225.945312 L 294.347656 225.554688 C 295.277344 225.554688 296.070312 225.246094 296.75 224.640625 C 297.417969 224.019531 297.761719 223.011719 297.761719 221.601562 L 297.761719 194.234375 C 297.761719 192.730469 297.417969 191.707031 296.75 191.148438 C 296.085938 190.59375 295.277344 190.3125 294.347656 190.3125 L 294.347656 189.894531 Z M 304.476562 189.894531 " fill-opacity="1" fill-rule="nonzero"/><path fill="#1d1d1b" d="M 340.792969 189.894531 L 340.792969 190.3125 C 339.988281 190.421875 339.351562 190.609375 338.871094 190.839844 C 338.402344 191.074219 338.03125 191.539062 337.769531 192.234375 C 337.503906 192.933594 337.378906 193.925781 337.378906 195.226562 L 337.378906 226.84375 L 337.164062 226.84375 L 312.621094 195.957031 L 312.621094 218.128906 C 312.621094 219.972656 312.683594 221.339844 312.824219 222.238281 C 312.949219 223.136719 313.148438 223.773438 313.382812 224.175781 C 313.910156 225.027344 314.855469 225.480469 316.175781 225.539062 L 316.175781 225.929688 L 308.167969 225.929688 L 308.167969 225.539062 C 309.070312 225.496094 309.765625 225.277344 310.265625 224.890625 C 310.761719 224.5 311.117188 223.804688 311.335938 222.78125 C 311.535156 221.757812 311.644531 220.222656 311.644531 218.160156 L 311.644531 194.640625 L 310.589844 193.289062 C 309.644531 192.082031 308.898438 191.320312 308.339844 190.996094 C 307.78125 190.667969 307.066406 190.4375 306.230469 190.265625 L 306.230469 189.847656 L 312.234375 189.847656 L 336.402344 220.394531 L 336.402344 197.121094 C 336.402344 195.367188 336.339844 194.066406 336.21875 193.195312 C 336.09375 192.328125 335.765625 191.644531 335.238281 191.117188 C 334.710938 190.59375 333.890625 190.3125 332.757812 190.265625 L 332.757812 189.847656 L 340.777344 189.847656 Z M 340.792969 189.894531 " fill-opacity="1" fill-rule="nonzero"/><path fill="#1d1d1b" d="M 360.261719 196.808594 L 359.921875 196.808594 C 359.71875 195.058594 359.035156 193.539062 357.886719 192.21875 C 356.742188 190.902344 355.21875 190.25 353.34375 190.25 C 352.117188 190.25 351.015625 190.578125 350.070312 191.226562 C 349.109375 191.878906 348.378906 192.761719 347.851562 193.894531 C 347.324219 195.027344 347.074219 196.3125 347.074219 197.753906 C 347.074219 198.886719 347.230469 199.878906 347.542969 200.746094 C 347.851562 201.617188 348.316406 202.390625 348.921875 203.058594 C 349.527344 203.726562 350.242188 204.34375 351.0625 204.933594 C 351.886719 205.507812 353 206.238281 354.398438 207.121094 C 356.742188 208.578125 358.554688 210.019531 359.859375 211.460938 C 361.160156 212.902344 361.8125 214.886719 361.8125 217.402344 C 361.8125 218.933594 361.457031 220.410156 360.757812 221.851562 C 360.058594 223.277344 358.988281 224.457031 357.578125 225.371094 C 356.167969 226.285156 354.398438 226.734375 352.304688 226.734375 C 350.984375 226.734375 349.820312 226.578125 348.8125 226.253906 C 347.804688 225.929688 346.78125 225.496094 345.726562 224.921875 C 345.292969 224.765625 344.996094 224.671875 344.84375 224.671875 C 344.53125 224.671875 344.347656 224.796875 344.253906 225.042969 C 344.160156 225.292969 344.035156 225.820312 343.878906 226.640625 L 343.507812 226.640625 L 343.507812 217.617188 L 343.878906 217.617188 C 344.40625 220.253906 345.417969 222.253906 346.921875 223.617188 C 348.425781 224.96875 350.257812 225.648438 352.414062 225.648438 C 354.027344 225.648438 355.328125 225.308594 356.304688 224.625 C 357.285156 223.945312 357.949219 223.105469 358.339844 222.128906 C 358.710938 221.152344 358.898438 220.175781 358.898438 219.199219 C 358.898438 217.183594 358.355469 215.523438 357.253906 214.238281 C 356.167969 212.949219 354.507812 211.648438 352.273438 210.316406 C 350.738281 209.367188 349.605469 208.640625 348.859375 208.113281 C 348.117188 207.585938 347.371094 206.917969 346.609375 206.082031 C 345.851562 205.246094 345.246094 204.265625 344.796875 203.136719 C 344.34375 202.003906 344.128906 200.703125 344.128906 199.226562 C 344.128906 197.539062 344.53125 195.910156 345.324219 194.359375 C 346.113281 192.808594 347.246094 191.570312 348.703125 190.621094 C 350.164062 189.675781 351.824219 189.210938 353.667969 189.210938 C 355.066406 189.210938 356.507812 189.476562 357.980469 190.019531 C 358.214844 190.140625 358.523438 190.21875 358.914062 190.21875 C 359.394531 190.21875 359.71875 189.847656 359.890625 189.117188 L 360.230469 189.117188 L 360.230469 196.824219 Z M 360.261719 196.808594 " fill-opacity="1" fill-rule="nonzero"/><path fill="#1d1d1b" d="M 147.222656 59.976562 L 149.085938 60.007812 L 169.15625 103.699219 L 194.957031 59.960938 L 194.957031 149.84375 L 187.402344 149.84375 L 187.402344 75.636719 C 187.339844 75.355469 187.433594 75.296875 187 75.898438 L 168.847656 106.554688 " fill-opacity="1" fill-rule="nonzero"/><path fill="#1d1d1b" d="M 178.464844 165.628906 L 179.039062 166.203125 L 191.527344 166.203125 C 192.320312 166.203125 193.09375 166.09375 193.855469 165.875 C 194.910156 165.582031 196.351562 165.148438 196.785156 164.945312 C 210.144531 158.992188 213.898438 137.6875 207.613281 126.554688 C 206.328125 124.261719 205.085938 121.625 201.128906 117.855469 C 214.6875 125.703125 217.945312 144.199219 209.367188 156.589844 C 205.863281 161.644531 201.332031 165.90625 193.1875 166.929688 C 193.078125 166.929688 192.96875 166.945312 192.863281 166.945312 L 170.941406 166.945312 C 170.679688 151.425781 171.285156 135.828125 170.957031 120.292969 C 170.925781 118.742188 170.941406 117.453125 170.863281 115.546875 L 178.898438 115.640625 " fill-opacity="1" fill-rule="nonzero"/></svg>